PathFileType	4	(X/Y/Z)	D:\Documents\Paper\paper_current\paper_step_1_data\data_step_3\marker\30DL\subject_01.tsv
DataRate	CameraRate	NumFrames	NumMarkers	Units	OrigDataRate	OrigDataStartFrame	OrigNumFrames
200	200	10	43	mm	200	0	200
Frame#	Time	Top.Head			L.Acromium			R.Acromium			Sternum			L.ASIS			R.ASIS			V.Sacral			R.Knee.Lat			R.Knee.Med			L.Knee.Lat			L.Knee.Med			L.Ankle.Lat			L.Toe.Tip			R.Heel			R.Ankle.Med			R.Ankle.Lat			L.Toe.Med			L.Toe.Lat			L.Heel			L.Ankle.Med			L.Shank1			L.Shank2			R.Toe.Tip			R.Toe.Med			R.Toe.Lat			L.Thigh2			L.Thigh1			L.Thigh3			R.Thigh3			R.Thigh1			R.Thigh2			R.Shank1			R.Shank2			R.Shank3			L.Shank3			L.Shank4			R.Shank4			L.Thigh4			R.Thigh4			R.Heel.Lat			R.Heel.Med			L.Heel.Lat			L.Heel.Med		
		X1	Y1	Z1	X2	Y2	Z2	X3	Y3	Z3	X4	Y4	Z4	X5	Y5	Z5	X6	Y6	Z6	X7	Y7	Z7	X8	Y8	Z8	X9	Y9	Z9	X10	Y10	Z10	X11	Y11	Z11	X12	Y12	Z12	X13	Y13	Z13	X14	Y14	Z14	X15	Y15	Z15	X16	Y16	Z16	X17	Y17	Z17	X18	Y18	Z18	X19	Y19	Z19	X20	Y20	Z20	X21	Y21	Z21	X22	Y22	Z22	X23	Y23	Z23	X24	Y24	Z24	X25	Y25	Z25	X26	Y26	Z26	X27	Y27	Z27	X28	Y28	Z28	X29	Y29	Z29	X30	Y30	Z30	X31	Y31	Z31	X32	Y32	Z32	X33	Y33	Z33	X34	Y34	Z34	X35	Y35	Z35	X36	Y36	Z36	X37	Y37	Z37	X38	Y38	Z38	X39	Y39	Z39	X40	Y40	Z40	X41	Y41	Z41	X42	Y42	Z42	X43	Y43	Z43
598	2.985	-840.62	1680.955	353.851	-1008.457	1413.814	282.903	-872.168	1416.595	577.46	-833.308	1349.15	383.444	-844.285	921.667	261.332	-775.013	926.725	489.052	-968.872	959.008	424.492	-861.463	466.496	549.456	-858.817	451.353	434.933	-897.74	475.182	258.164	-851.432	465.965	360.698	-921.212	97.752	297.045	-743.075	54.332	234.669	-1014.361	31.31	502.461	-901	99.518	482.351	-950.402	103.903	560.79	-763.067	43.792	304.153	-836.328	43.495	228.453	-986.445	31.35	372.946	-882.959	108.508	374.432	-878.626	387.828	246.04	-881.413	305.618	237.855	-747.119	52.737	607.298	-789.097	42.244	543.844	-854.285	35.462	632.799	-843.496	615.969	234.094	-852.806	697.775	223.915	-915.608	689.845	220.39	-875.151	644.202	565.352	-810.335	635.914	566.091	-815.368	552.981	556.228	-842.581	377.242	576.422	-861.124	291.984	581.917	-904.568	391.85	580.454	-941.988	389.135	252.088	-946.78	299.921	251.177	-922.808	310.777	585.395	-907.703	603.13	228.644	-879.671	557.694	554.867	-988.942	27.981	565.233	-938.442	26.616	476.15	-960.116	21.456	303.591	-904.227	26.644	392.287
599	2.99	-840.293	1680.925	353.712	-1008.192	1413.877	282.687	-872.019	1416.598	577.297	-833.133	1349.116	383.309	-844.187	921.57	261.309	-775.104	926.704	489.079	-968.888	959.08	424.357	-861.576	466.506	549.488	-858.949	451.343	434.952	-897.491	475.149	258.177	-851.241	465.951	360.742	-921.157	97.783	297.075	-743.107	54.366	234.677	-1014.395	31.292	502.43	-901.015	99.506	482.381	-950.419	103.893	560.808	-763.08	43.794	304.163	-836.338	43.515	228.457	-986.441	31.364	372.943	-882.863	108.534	374.532	-878.361	387.796	246.072	-881.122	305.477	238.071	-747.103	52.717	607.302	-789.087	42.243	543.85	-854.283	35.459	632.809	-843.292	615.926	234.137	-852.653	697.738	223.938	-915.424	689.773	220.361	-875.217	644.224	565.4	-810.387	635.934	566.057	-815.433	552.976	556.227	-842.645	377.296	576.458	-861.137	292.01	581.965	-904.654	391.857	580.498	-941.774	389.175	252.063	-946.504	299.984	251.088	-922.835	310.78	585.474	-907.477	603.068	228.608	-879.876	557.663	554.84	-988.913	27.977	565.214	-938.444	26.605	476.155	-960.14	21.488	303.572	-904.246	26.629	392.248
600	2.995	-839.941	1680.96	353.584	-1007.919	1413.938	282.452	-871.874	1416.594	577.121	-832.957	1349.08	383.161	-844.125	921.499	261.294	-775.191	926.683	489.092	-968.903	959.141	424.22	-861.68	466.515	549.513	-859.082	451.323	434.955	-897.233	475.111	258.186	-851.041	465.934	360.781	-921.104	97.81	297.107	-743.138	54.397	234.685	-1014.451	31.264	502.378	-901.03	99.49	482.41	-950.433	103.874	560.826	-763.094	43.792	304.172	-836.348	43.532	228.463	-986.437	31.37	372.943	-882.76	108.563	374.64	-878.091	387.752	246.1	-880.848	305.35	238.246	-747.089	52.693	607.304	-789.079	42.241	543.856	-854.281	35.454	632.819	-843.083	615.878	234.17	-852.478	697.66	223.928	-915.238	689.695	220.325	-875.319	644.277	565.381	-810.454	635.925	566.017	-815.524	553.008	556.241	-842.741	377.316	576.501	-861.197	292.036	582.023	-904.766	391.829	580.516	-941.492	389.139	251.984	-946.308	300.056	250.967	-922.915	310.731	585.509	-907.27	603.057	228.592	-879.994	557.658	554.835	-988.934	27.992	565.222	-938.446	26.586	476.164	-960.107	21.523	303.532	-904.257	26.61	392.197
601	3	-839.57	1680.928	353.474	-1007.637	1413.995	282.198	-871.732	1416.585	576.932	-832.779	1349.041	382.999	-844.02	921.424	261.254	-775.272	926.66	489.091	-968.918	959.186	424.079	-861.777	466.521	549.53	-859.22	451.291	434.941	-896.965	475.067	258.194	-850.834	465.913	360.815	-921.053	97.833	297.144	-743.169	54.425	234.693	-1014.53	31.227	502.303	-901.042	99.471	482.438	-950.442	103.846	560.846	-763.105	43.787	304.181	-836.358	43.545	228.471	-986.435	31.367	372.949	-882.65	108.595	374.752	-877.817	387.699	246.125	-880.588	305.24	238.379	-747.077	52.662	607.307	-789.072	42.233	543.862	-854.28	35.444	632.83	-842.869	615.828	234.19	-852.248	697.566	223.981	-915.049	689.615	220.281	-875.472	644.231	565.31	-810.608	635.919	566.015	-815.672	553.001	556.218	-842.906	377.31	576.503	-861.299	292.027	582.052	-904.909	391.84	580.555	-941.257	389.123	251.992	-946.117	300.009	250.951	-923.031	310.724	585.566	-907.02	602.946	228.585	-880.084	557.696	554.866	-988.981	27.974	565.211	-938.446	26.563	476.177	-960.158	21.529	303.559	-904.262	26.589	392.136
602	3.005	-839.19	1680.883	353.314	-1007.347	1414.047	281.923	-871.595	1416.574	576.73	-832.6	1349.001	382.823	-843.896	921.336	261.216	-775.35	926.636	489.075	-968.929	959.212	423.933	-861.868	466.523	549.54	-859.361	451.251	434.907	-896.689	475.018	258.197	-850.621	465.889	360.842	-921.004	97.85	297.182	-743.198	54.454	234.7	-1014.627	31.183	502.211	-901.052	99.448	482.465	-950.447	103.815	560.866	-763.113	43.783	304.188	-836.367	43.557	228.48	-986.433	31.357	372.96	-882.537	108.629	374.864	-877.538	387.64	246.144	-880.338	305.145	238.475	-747.065	52.626	607.311	-789.065	42.22	543.868	-854.279	35.43	632.843	-842.653	615.779	234.197	-852.029	697.55	223.97	-914.857	689.532	220.224	-875.527	644.286	565.302	-810.701	635.924	566.003	-815.775	552.986	556.191	-843.014	377.323	576.521	-861.36	292.025	582.062	-905.002	391.8	580.573	-940.964	389.127	251.935	-945.872	300.027	250.911	-923.091	310.692	585.616	-906.809	602.833	228.593	-880.207	557.699	554.86	-989.008	27.916	565.222	-938.446	26.54	476.193	-960.132	21.503	303.588	-904.259	26.57	392.065
603	3.01	-838.771	1680.837	353.144	-1007.048	1414.096	281.627	-871.46	1416.561	576.515	-832.419	1348.961	382.632	-843.801	921.262	261.151	-775.425	926.611	489.045	-968.934	959.219	423.778	-861.953	466.521	549.544	-859.506	451.203	434.853	-896.406	474.964	258.195	-850.403	465.861	360.861	-920.955	97.863	297.222	-743.227	54.486	234.708	-1014.734	31.138	502.111	-901.059	99.424	482.491	-950.447	103.786	560.884	-763.12	43.784	304.195	-836.378	43.568	228.491	-986.433	31.342	372.976	-882.425	108.663	374.97	-877.254	387.579	246.157	-880.093	305.064	238.539	-747.052	52.584	607.315	-789.059	42.2	543.874	-854.279	35.412	632.856	-842.434	615.73	234.188	-851.865	697.423	223.92	-914.665	689.449	220.155	-875.582	644.281	565.276	-810.76	635.88	566.002	-815.834	553.032	556.227	-843.056	377.322	576.548	-861.394	292.036	582.072	-905.066	391.768	580.568	-940.68	389.114	251.861	-945.648	299.973	250.966	-923.14	310.64	585.612	-906.6	602.767	228.579	-880.308	557.709	554.841	-988.982	27.85	565.24	-938.444	26.522	476.21	-960.126	21.466	303.599	-904.246	26.555	391.985
604	3.015	-838.3	1680.788	352.939	-1006.742	1414.142	281.307	-871.328	1416.55	576.285	-832.238	1348.921	382.428	-843.73	921.194	261.072	-775.499	926.587	489.003	-968.934	959.21	423.614	-862.033	466.514	549.539	-859.652	451.152	434.779	-896.116	474.908	258.185	-850.18	465.83	360.87	-920.909	97.873	297.263	-743.255	54.523	234.716	-1014.837	31.099	502.017	-901.062	99.399	482.515	-950.443	103.765	560.9	-763.126	43.792	304.2	-836.389	43.581	228.502	-986.434	31.325	372.996	-882.318	108.695	375.064	-876.962	387.517	246.16	-879.848	304.995	238.578	-747.041	52.536	607.32	-789.051	42.175	543.878	-854.281	35.39	632.868	-842.213	615.683	234.164	-851.698	697.392	223.847	-914.471	689.366	220.073	-875.619	644.282	565.287	-810.773	635.911	565.953	-815.876	552.989	556.175	-843.077	377.315	576.547	-861.385	292.009	582.09	-905.095	391.753	580.571	-940.392	389.097	251.847	-945.385	299.926	250.91	-923.147	310.67	585.614	-906.342	602.738	228.479	-880.284	557.686	554.828	-988.941	27.834	565.239	-938.443	26.514	476.226	-960.117	21.453	303.604	-904.223	26.548	391.899
605	3.02	-837.836	1680.757	352.727	-1006.43	1414.187	280.964	-871.199	1416.542	576.038	-832.057	1348.881	382.21	-843.684	921.159	260.957	-775.571	926.564	488.946	-968.931	959.189	423.438	-862.11	466.506	549.527	-859.795	451.103	434.686	-895.819	474.85	258.166	-849.951	465.796	360.868	-920.864	97.879	297.303	-743.283	54.567	234.725	-1014.927	31.074	501.941	-901.061	99.374	482.537	-950.436	103.751	560.913	-763.132	43.808	304.206	-836.403	43.597	228.513	-986.436	31.308	373.018	-882.22	108.723	375.141	-876.663	387.457	246.153	-879.599	304.935	238.597	-747.029	52.485	607.326	-789.043	42.145	543.882	-854.286	35.367	632.879	-841.99	615.639	234.125	-851.555	697.351	223.772	-914.275	689.283	219.979	-875.618	644.322	565.282	-810.791	635.898	565.887	-815.948	552.974	556.16	-843.129	377.352	576.55	-861.391	292.003	582.063	-905.14	391.75	580.579	-940.111	389.038	251.792	-945.145	299.894	250.915	-923.133	310.68	585.625	-906.102	602.663	228.408	-880.358	557.669	554.79	-988.961	27.852	565.253	-938.44	26.516	476.242	-960.117	21.505	303.611	-904.184	26.553	391.805
606	3.025	-837.371	1680.71	352.474	-1006.113	1414.231	280.596	-871.073	1416.538	575.776	-831.874	1348.842	381.98	-843.585	921.074	260.862	-775.641	926.544	488.876	-968.925	959.16	423.25	-862.183	466.496	549.508	-859.928	451.061	434.58	-895.514	474.791	258.137	-849.717	465.762	360.854	-920.822	97.884	297.344	-743.312	54.618	234.735	-1014.998	31.064	501.887	-901.057	99.351	482.556	-950.426	103.745	560.925	-763.138	43.832	304.212	-836.419	43.616	228.524	-986.439	31.29	373.041	-882.135	108.744	375.195	-876.354	387.396	246.136	-879.341	304.88	238.603	-747.018	52.43	607.333	-789.034	42.113	543.884	-854.292	35.344	632.887	-841.765	615.596	234.069	-851.387	697.308	223.682	-914.078	689.2	219.874	-875.746	644.266	565.21	-810.883	635.875	565.825	-816.03	552.948	556.114	-843.215	377.346	576.499	-861.458	292.034	582.056	-905.213	391.757	580.551	-939.88	389.028	251.727	-944.97	299.844	250.887	-923.214	310.669	585.56	-905.822	602.527	228.301	-880.407	557.706	554.769	-988.962	27.846	565.284	-938.437	26.524	476.258	-960.144	21.503	303.615	-904.127	26.575	391.704
607	3.03	-836.875	1680.61	352.203	-1005.787	1414.275	280.204	-870.949	1416.538	575.497	-831.692	1348.801	381.737	-843.495	921.029	260.755	-775.705	926.529	488.793	-968.916	959.127	423.051	-862.252	466.489	549.483	-860.047	451.034	434.467	-895.201	474.732	258.095	-849.476	465.727	360.825	-920.782	97.889	297.384	-743.344	54.677	234.745	-1015.051	31.07	501.852	-901.051	99.33	482.572	-950.41	103.742	560.934	-763.145	43.863	304.218	-836.436	43.637	228.534	-986.441	31.275	373.064	-882.066	108.759	375.225	-876.037	387.336	246.107	-879.068	304.825	238.604	-747.006	52.376	607.342	-789.023	42.081	543.885	-854.297	35.323	632.895	-841.537	615.555	233.998	-851.191	697.298	223.581	-913.88	689.114	219.759	-875.848	644.231	565.167	-811.018	635.899	565.763	-816.143	552.94	556.017	-843.315	377.329	576.474	-861.54	292.056	582.034	-905.315	391.728	580.511	-939.605	388.947	251.657	-944.697	299.78	250.87	-923.255	310.614	585.557	-905.615	602.375	228.274	-879.755	557.777	554.62	-989.021	27.859	565.283	-938.431	26.536	476.272	-960.182	21.473	303.684	-904.045	26.615	391.596
